<svg width="378" height="108" viewBox="0 0 378 108" fill="none" xmlns="http://www.w3.org/2000/svg">
<g clip-path="url(#clip0)">
<path d="M76.8 21.6C75 21.6 73.5 23.1 73.5 24.9V36C71.9 33.1 70 30.4 67.8 27.9V18.2C67.8 16.4 66.3 14.9 64.5 14.9C62.7 14.9 61.2 16.4 61.2 18.2V22.3C59.4 21.1 57.5 20 55.5 19.1V10.1C55.5 8.3 54 6.8 52.2 6.8C50.4 6.8 48.9 8.3 48.9 10.1V17C47 16.5 45.1 16.2 43.2 16.1V3.3C43.3 1.5 41.8 0 40 0C38.2 0 36.7 1.5 36.7 3.3V16C34.7 16.2 32.8 16.5 31 16.9V10.1C31 8.3 29.5 6.8 27.7 6.8C25.9 6.8 24.4 8.3 24.4 10.1V19.1C22.4 20 20.5 21.1 18.7 22.3V17.8C18.7 16 17.2 14.5 15.4 14.5C13.6 14.5 12.1 16 12.1 17.8V28C10 30.4 8.1 33.1 6.5 36V24.8C6.5 23 5 21.5 3.2 21.5C1.5 21.6 0 23 0 24.8V82.8C0 84.6 1.5 86.1 3.3 86.1C5.1 86.1 6.6 84.6 6.6 82.8V71.6C8.2 74.5 10.1 77.2 12.3 79.7V89.8C12.3 91.6 13.8 93.1 15.6 93.1C17.4 93.1 18.9 91.6 18.9 89.8V85.3C20.7 86.5 22.6 87.6 24.6 88.5V97.5C24.6 99.3 26.1 100.8 27.9 100.8C29.7 100.8 31.2 99.3 31.2 97.5V90.7C33.1 91.2 35 91.5 36.9 91.6V104.4C36.9 106.2 38.4 107.7 40.2 107.7C42 107.7 43.5 106.2 43.5 104.4V91.7C45.5 91.5 47.4 91.2 49.2 90.8V97.6C49.2 99.4 50.7 100.9 52.5 100.9C54.3 100.9 55.8 99.4 55.8 97.6V88.6C57.8 87.7 59.7 86.6 61.5 85.4V89.5C61.5 91.3 63 92.8 64.8 92.8C66.6 92.8 68.1 91.3 68.1 89.5V79.8C70.3 77.4 72.3 74.7 73.8 71.7V82.9C73.8 84.7 75.3 86.2 77.1 86.2C78.9 86.2 80.4 84.7 80.4 82.9V63.9V24.8C80.1 23 78.6 21.6 76.8 21.6ZM58.7 56.9L31.5 72.6C30.1 73.4 28.9 73.5 27.9 73C26.9 72.5 26.3 71.3 26.3 69.6V38.1C26.3 34.8 28.7 33.4 31.5 35.1L58.7 50.8C61.6 52.5 61.6 55.2 58.7 56.9Z" fill="white"/>
<path d="M61.3 89.4C61.3 91.2 62.8 92.7 64.6 92.7C66.4 92.7 67.9 91.2 67.9 89.4V79.7C70.1 77.3 72.1 74.6 73.6 71.6V82.8C73.6 84.6 75.1 86.1 76.9 86.1C78.7 86.1 80.2 84.6 80.2 82.8V63.8L58.7 50.8C61.6 52.5 61.6 55.2 58.7 56.8L31.5 72.6C30.1 73.4 28.9 73.5 27.9 73L55.6 88.5C57.6 87.6 59.5 86.5 61.3 85.3V89.4Z" fill="#0683F1" fill-opacity="0.3"/>
</g>
<path d="M130.244 61.084C130.244 64.1634 129.17 66.5088 127.021 68.1201C124.891 69.7314 121.695 70.5371 117.434 70.5371C115.25 70.5371 113.388 70.3849 111.848 70.0806C110.308 69.7941 108.867 69.3644 107.524 68.7915V62.0239C109.046 62.7401 110.756 63.3398 112.654 63.8232C114.569 64.3066 116.252 64.5483 117.703 64.5483C120.675 64.5483 122.161 63.689 122.161 61.9702C122.161 61.3257 121.964 60.8065 121.57 60.4126C121.176 60.0008 120.496 59.5443 119.529 59.043C118.562 58.5238 117.273 57.924 115.662 57.2437C113.352 56.2769 111.651 55.3817 110.559 54.5581C109.485 53.7345 108.697 52.7946 108.196 51.7383C107.712 50.6641 107.471 49.3481 107.471 47.7905C107.471 45.1229 108.5 43.064 110.559 41.6138C112.636 40.1457 115.572 39.4116 119.368 39.4116C122.984 39.4116 126.502 40.1994 129.922 41.7749L127.451 47.6831C125.947 47.0386 124.542 46.5104 123.235 46.0986C121.928 45.6868 120.594 45.481 119.233 45.481C116.816 45.481 115.608 46.1344 115.608 47.4414C115.608 48.1755 115.993 48.811 116.763 49.3481C117.55 49.8853 119.26 50.682 121.892 51.7383C124.237 52.6872 125.956 53.5734 127.048 54.397C128.14 55.2205 128.946 56.1694 129.465 57.2437C129.985 58.3179 130.244 59.598 130.244 61.084ZM152.035 64.0112C153.467 64.0112 155.186 63.6979 157.191 63.0713V69.1675C155.15 70.0806 152.643 70.5371 149.671 70.5371C146.395 70.5371 144.005 69.7135 142.501 68.0664C141.015 66.4014 140.272 63.9128 140.272 60.6006V46.1255H136.351V42.6611L140.863 39.9219L143.226 33.584H148.463V39.9756H156.869V46.1255H148.463V60.6006C148.463 61.7643 148.785 62.6237 149.43 63.1787C150.092 63.7337 150.96 64.0112 152.035 64.0112ZM182.795 39.4116C183.905 39.4116 184.827 39.4922 185.561 39.6533L184.943 47.334C184.281 47.1549 183.475 47.0654 182.526 47.0654C179.912 47.0654 177.871 47.7368 176.403 49.0796C174.953 50.4224 174.228 52.3022 174.228 54.7192V70H166.037V39.9756H172.241L173.449 45.0244H173.852C174.783 43.3415 176.036 41.9897 177.612 40.9692C179.205 39.9308 180.933 39.4116 182.795 39.4116ZM206.197 45.2393C204.46 45.2393 203.099 45.7943 202.115 46.9043C201.13 47.9964 200.566 49.554 200.423 51.5771H211.917C211.881 49.554 211.353 47.9964 210.333 46.9043C209.312 45.7943 207.933 45.2393 206.197 45.2393ZM207.352 70.5371C202.518 70.5371 198.74 69.2033 196.019 66.5356C193.297 63.868 191.937 60.0903 191.937 55.2026C191.937 50.1717 193.19 46.2866 195.696 43.5474C198.221 40.7902 201.703 39.4116 206.143 39.4116C210.386 39.4116 213.689 40.6201 216.053 43.0371C218.416 45.4541 219.598 48.7931 219.598 53.0542V57.0288H200.235C200.324 59.3563 201.014 61.1735 202.303 62.4805C203.592 63.7874 205.4 64.4409 207.728 64.4409C209.536 64.4409 211.246 64.2529 212.857 63.877C214.468 63.501 216.151 62.9012 217.906 62.0776V68.4155C216.473 69.1317 214.943 69.6598 213.313 70C211.684 70.3581 209.697 70.5371 207.352 70.5371ZM248.075 70L246.491 65.918H246.276C244.897 67.6546 243.474 68.8631 242.006 69.5435C240.556 70.2059 238.658 70.5371 236.312 70.5371C233.43 70.5371 231.156 69.7135 229.491 68.0664C227.844 66.4193 227.021 64.0739 227.021 61.0303C227.021 57.8434 228.131 55.498 230.351 53.9941C232.589 52.4723 235.954 51.6309 240.448 51.4697L245.658 51.3086V49.9927C245.658 46.9491 244.101 45.4272 240.985 45.4272C238.586 45.4272 235.766 46.1523 232.526 47.6025L229.813 42.0703C233.269 40.262 237.1 39.3579 241.308 39.3579C245.336 39.3579 248.424 40.2352 250.573 41.9897C252.721 43.7443 253.795 46.4119 253.795 49.9927V70H248.075ZM245.658 56.0889L242.489 56.1963C240.108 56.2679 238.336 56.6976 237.172 57.4854C236.008 58.2731 235.426 59.4727 235.426 61.084C235.426 63.3936 236.751 64.5483 239.401 64.5483C241.299 64.5483 242.812 64.0023 243.939 62.9102C245.085 61.818 245.658 60.3678 245.658 58.5596V56.0889ZM291.887 70H283.696V52.4634C283.696 50.297 283.329 48.6768 282.595 47.6025C281.879 46.5104 280.742 45.9644 279.185 45.9644C277.09 45.9644 275.568 46.7342 274.619 48.2739C273.67 49.8136 273.196 52.347 273.196 55.874V70H265.005V39.9756H271.262L272.363 43.8159H272.82C273.625 42.4373 274.789 41.3631 276.311 40.5933C277.833 39.8055 279.578 39.4116 281.548 39.4116C286.042 39.4116 289.085 40.8797 290.679 43.8159H291.404C292.209 42.4194 293.391 41.3363 294.949 40.5664C296.524 39.7965 298.297 39.4116 300.266 39.4116C303.668 39.4116 306.237 40.2889 307.974 42.0435C309.728 43.7801 310.605 46.5731 310.605 50.4224V70H302.388V52.4634C302.388 50.297 302.021 48.6768 301.287 47.6025C300.57 46.5104 299.434 45.9644 297.876 45.9644C295.871 45.9644 294.367 46.6805 293.364 48.1128C292.38 49.5451 291.887 51.8188 291.887 54.9341V70ZM334.222 45.2393C332.486 45.2393 331.125 45.7943 330.14 46.9043C329.155 47.9964 328.591 49.554 328.448 51.5771H339.942C339.907 49.554 339.378 47.9964 338.358 46.9043C337.337 45.7943 335.959 45.2393 334.222 45.2393ZM335.377 70.5371C330.543 70.5371 326.765 69.2033 324.044 66.5356C321.323 63.868 319.962 60.0903 319.962 55.2026C319.962 50.1717 321.215 46.2866 323.722 43.5474C326.246 40.7902 329.728 39.4116 334.168 39.4116C338.412 39.4116 341.715 40.6201 344.078 43.0371C346.441 45.4541 347.623 48.7931 347.623 53.0542V57.0288H328.26C328.35 59.3563 329.039 61.1735 330.328 62.4805C331.617 63.7874 333.425 64.4409 335.753 64.4409C337.561 64.4409 339.271 64.2529 340.882 63.877C342.494 63.501 344.177 62.9012 345.931 62.0776V68.4155C344.499 69.1317 342.968 69.6598 341.339 70C339.71 70.3581 337.722 70.5371 335.377 70.5371ZM373.791 39.4116C374.901 39.4116 375.823 39.4922 376.557 39.6533L375.939 47.334C375.277 47.1549 374.471 47.0654 373.522 47.0654C370.909 47.0654 368.868 47.7368 367.399 49.0796C365.949 50.4224 365.224 52.3022 365.224 54.7192V70H357.033V39.9756H363.237L364.445 45.0244H364.848C365.779 43.3415 367.032 41.9897 368.608 40.9692C370.201 39.9308 371.929 39.4116 373.791 39.4116Z" fill="white"/>
<defs>
<clipPath id="clip0">
<rect width="80.1" height="107.7" fill="white"/>
</clipPath>
</defs>
</svg>
