<svg width="20" height="26" viewBox="0 0 20 26" fill="none" xmlns="http://www.w3.org/2000/svg">
<g id="ico/influencer">
<g id="Rectangle 7">
<path id="Mask" d="M0.474526 21.3462C0.740904 21.3462 0.959333 21.1295 0.959333 20.8652V18.2069C0.959333 17.7841 1.1458 17.3877 1.47078 17.1234C3.86285 15.1733 6.45204 13.8784 6.9475 13.6406C7.17658 13.5296 7.3151 13.3077 7.3151 13.054V9.31219C7.3151 9.15364 7.23519 9.00037 7.102 8.91581C6.74505 8.67799 6.53195 8.28161 6.53195 7.85881V3.97433C6.53195 2.30955 7.8958 0.956587 9.57398 0.956587H10.4157C12.0939 0.956587 13.4578 2.30955 13.4578 3.97433V7.85352C13.4578 8.27633 13.2447 8.6727 12.8877 8.91053C12.7545 9.00037 12.6746 9.14835 12.6746 9.3069V13.0487C12.6746 13.3024 12.8131 13.5243 13.0422 13.6353C13.5377 13.8732 16.1269 15.1733 18.5189 17.1181C18.8439 17.3824 19.0304 17.7788 19.0304 18.2016V20.8599C19.0304 21.1242 19.2488 21.3409 19.5152 21.3409C19.7816 21.3409 20 21.1242 20 20.8599V18.2016C20 17.4934 19.6857 16.8275 19.1316 16.3782C16.8674 14.5338 14.4274 13.2495 13.6389 12.8584V9.55001C14.1344 9.12721 14.4274 8.51415 14.4274 7.85881V3.97433C14.4274 1.78105 12.632 0 10.4211 0H9.57931C7.36838 0 5.57299 1.78105 5.57299 3.97433V7.85352C5.57299 8.50887 5.86068 9.12721 6.36147 9.54473V12.8637C5.57299 13.2548 3.1383 14.5338 0.868765 16.3835C0.320027 16.8328 0.000374 17.4987 0.000374 18.2069V20.8652C-0.0102811 21.1348 0.208148 21.3462 0.474526 21.3462Z" fill="#5F9DA9"/>
<mask id="mask0" mask-type="alpha" maskUnits="userSpaceOnUse" x="0" y="0" width="20" height="22">
<path id="Mask_2" d="M0.474526 21.3462C0.740904 21.3462 0.959333 21.1295 0.959333 20.8652V18.2069C0.959333 17.7841 1.1458 17.3877 1.47078 17.1234C3.86285 15.1733 6.45204 13.8784 6.9475 13.6406C7.17658 13.5296 7.3151 13.3077 7.3151 13.054V9.31219C7.3151 9.15364 7.23519 9.00037 7.102 8.91581C6.74505 8.67799 6.53195 8.28161 6.53195 7.85881V3.97433C6.53195 2.30955 7.8958 0.956587 9.57398 0.956587H10.4157C12.0939 0.956587 13.4578 2.30955 13.4578 3.97433V7.85352C13.4578 8.27633 13.2447 8.6727 12.8877 8.91053C12.7545 9.00037 12.6746 9.14835 12.6746 9.3069V13.0487C12.6746 13.3024 12.8131 13.5243 13.0422 13.6353C13.5377 13.8732 16.1269 15.1733 18.5189 17.1181C18.8439 17.3824 19.0304 17.7788 19.0304 18.2016V20.8599C19.0304 21.1242 19.2488 21.3409 19.5152 21.3409C19.7816 21.3409 20 21.1242 20 20.8599V18.2016C20 17.4934 19.6857 16.8275 19.1316 16.3782C16.8674 14.5338 14.4274 13.2495 13.6389 12.8584V9.55001C14.1344 9.12721 14.4274 8.51415 14.4274 7.85881V3.97433C14.4274 1.78105 12.632 0 10.4211 0H9.57931C7.36838 0 5.57299 1.78105 5.57299 3.97433V7.85352C5.57299 8.50887 5.86068 9.12721 6.36147 9.54473V12.8637C5.57299 13.2548 3.1383 14.5338 0.868765 16.3835C0.320027 16.8328 0.000374 17.4987 0.000374 18.2069V20.8652C-0.0102811 21.1348 0.208148 21.3462 0.474526 21.3462Z" fill="white"/>
</mask>
<g mask="url(#mask0)">
<rect id="Rectangle 7_2" x="9.73535" width="11.3582" height="25.9615" fill="#5F9DA9"/>
</g>
</g>
</g>
</svg>
