<svg width="8" height="8" viewBox="0 0 8 8" fill="none" xmlns="http://www.w3.org/2000/svg">
<path fill-rule="evenodd" clip-rule="evenodd" d="M3.10236 7.09163V4.87649H0.866142C0.393701 4.87649 0 4.49402 0 4C0 3.52191 0.393701 3.12351 0.866142 3.12351H3.10236V0.908367C3.10236 0.398406 3.49606 0 4 0C4.48819 0 4.89764 0.398406 4.89764 0.908367V3.12351H7.13386C7.6063 3.12351 8 3.52191 8 4C8 4.49402 7.6063 4.87649 7.13386 4.87649H4.89764V7.09163C4.89764 7.60159 4.48819 8 4 8C3.49606 8 3.10236 7.60159 3.10236 7.09163Z" fill="#FCB813"/>
</svg>
