<svg width="44" height="44" viewBox="0 0 44 44" fill="none" xmlns="http://www.w3.org/2000/svg">
<rect x="1" y="1" width="42" height="42" rx="9" stroke="#B0C9D1" stroke-width="2"/>
<path fill-rule="evenodd" clip-rule="evenodd" d="M16.3583 25.1028L19.491 21.9701L16.3285 18.8076C15.6604 18.1395 15.6445 17.0418 16.3431 16.3431C17.0193 15.667 18.1395 15.6604 18.8076 16.3285L21.9701 19.491L25.1028 16.3583C25.824 15.6371 26.9442 15.6305 27.6569 16.3431C28.3473 17.0335 28.3629 18.176 27.6417 18.8972L24.509 22.0299L27.6715 25.1924C28.3396 25.8605 28.333 26.9807 27.6569 27.6569C26.9582 28.3555 25.8605 28.3396 25.1924 27.6715L22.0299 24.509L18.8972 27.6417C18.176 28.3629 17.0335 28.3473 16.3431 27.6569C15.6305 26.9442 15.6371 25.824 16.3583 25.1028Z" fill="#5F9DA9"/>
</svg>
