<svg width="16" height="16" viewBox="0 0 16 16" fill="none" xmlns="http://www.w3.org/2000/svg">
<path fill-rule="evenodd" clip-rule="evenodd" d="M15.832 6.84695C15.6676 6.51801 15.3935 6.25241 15.0541 6.09312L2.407 0.162884C1.57387 -0.228243 0.571319 0.109175 0.167686 0.916493C-0.0379446 1.32783 -0.0552305 1.8041 0.120117 2.22842L2.31929 7.55498L0.120117 12.8821C-0.222426 13.7177 0.198984 14.6642 1.06135 14.9961C1.25634 15.0712 1.46413 15.1102 1.67395 15.1111C1.92781 15.1111 2.17839 15.0556 2.407 14.9487L15.054 9.01683C15.8872 8.62579 16.2355 7.6543 15.832 6.84695ZM1.92034 13.9725C1.64259 14.1028 1.30843 13.9902 1.17397 13.7211C1.10545 13.584 1.09975 13.4252 1.15822 13.2838L3.29929 8.09638H14.4523L1.92034 13.9725ZM1.15826 1.82612L3.29932 7.01354H14.4523L1.92034 1.13907C1.7136 1.03673 1.46253 1.07356 1.29625 1.23056C1.12447 1.38055 1.06914 1.61934 1.15826 1.82612Z" fill="white"/>
</svg>
