<svg width="16" height="16" viewBox="0 0 16 16" fill="none" xmlns="http://www.w3.org/2000/svg">
<path fill-rule="evenodd" clip-rule="evenodd" d="M6.60303 9.50746C6.60303 8.67623 7.27926 8 8.11048 8C8.94165 8 9.61791 8.67623 9.61797 9.50746C9.61797 9.91979 9.44651 10.3185 9.14752 10.602V11.963C9.14752 12.5348 8.68231 13 8.11051 13C7.53871 13 7.07351 12.5348 7.07351 11.963V10.602C6.77436 10.3183 6.60303 9.9197 6.60303 9.50746ZM8.4174 10.5935C8.4174 10.3985 8.49994 10.209 8.64386 10.0734C8.80117 9.92504 8.88786 9.72404 8.8878 9.50746C8.8878 9.07884 8.53904 8.73008 8.11042 8.73008C7.6818 8.73008 7.33305 9.07884 7.33305 9.50746C7.33305 9.72404 7.41974 9.92504 7.57719 10.0735C7.72102 10.2091 7.80356 10.3986 7.80356 10.5935V11.963C7.80356 12.1323 7.94125 12.2699 8.11048 12.2699C8.27974 12.2699 8.4174 12.1323 8.4174 11.963V10.5935Z" fill="#B0C9D1"/>
<mask id="mask0" mask-type="alpha" maskUnits="userSpaceOnUse" x="6" y="8" width="4" height="5">
<path fill-rule="evenodd" clip-rule="evenodd" d="M6.60303 9.50746C6.60303 8.67623 7.27926 8 8.11048 8C8.94165 8 9.61791 8.67623 9.61797 9.50746C9.61797 9.91979 9.44651 10.3185 9.14752 10.602V11.963C9.14752 12.5348 8.68231 13 8.11051 13C7.53871 13 7.07351 12.5348 7.07351 11.963V10.602C6.77436 10.3183 6.60303 9.9197 6.60303 9.50746ZM8.4174 10.5935C8.4174 10.3985 8.49994 10.209 8.64386 10.0734C8.80117 9.92504 8.88786 9.72404 8.8878 9.50746C8.8878 9.07884 8.53904 8.73008 8.11042 8.73008C7.6818 8.73008 7.33305 9.07884 7.33305 9.50746C7.33305 9.72404 7.41974 9.92504 7.57719 10.0735C7.72102 10.2091 7.80356 10.3986 7.80356 10.5935V11.963C7.80356 12.1323 7.94125 12.2699 8.11048 12.2699C8.27974 12.2699 8.4174 12.1323 8.4174 11.963V10.5935Z" fill="white"/>
</mask>
<g mask="url(#mask0)">
<rect x="8" y="7" width="2" height="7" fill="#B0C9D1"/>
</g>
<path fill-rule="evenodd" clip-rule="evenodd" d="M12 4.50006V5.72992H4V4.50006C4 2.01871 5.79441 0 8.00002 0C10.2056 0 12 2.01871 12 4.50006ZM7.99998 1.32351C6.47872 1.32351 5.24109 2.71587 5.24109 4.42725V5.28156H10.7588V4.42725C10.7588 2.71587 9.52121 1.32351 7.99998 1.32351Z" fill="#B0C9D1"/>
<mask id="mask1" mask-type="alpha" maskUnits="userSpaceOnUse" x="4" y="0" width="8" height="6">
<path fill-rule="evenodd" clip-rule="evenodd" d="M12 4.50006V5.72992H4V4.50006C4 2.01871 5.79441 0 8.00002 0C10.2056 0 12 2.01871 12 4.50006ZM7.99998 1.32351C6.47872 1.32351 5.24109 2.71587 5.24109 4.42725V5.28156H10.7588V4.42725C10.7588 2.71587 9.52121 1.32351 7.99998 1.32351Z" fill="white"/>
</mask>
<g mask="url(#mask1)">
<rect x="8" width="5" height="7" fill="#B0C9D1"/>
</g>
<path fill-rule="evenodd" clip-rule="evenodd" d="M2 5C0.895431 5 0 5.89543 0 7V14C0 15.1046 0.895431 16 2 16H14C15.1046 16 16 15.1046 16 14V7C16 5.89543 15.1046 5 14 5H2ZM2 6C1.44772 6 1 6.44772 1 7V14C1 14.5523 1.44772 15 2 15H14C14.5523 15 15 14.5523 15 14V7C15 6.44772 14.5523 6 14 6H2Z" fill="#B0C9D1"/>
<mask id="mask2" mask-type="alpha" maskUnits="userSpaceOnUse" x="0" y="5" width="16" height="11">
<path fill-rule="evenodd" clip-rule="evenodd" d="M2 5C0.895431 5 0 5.89543 0 7V14C0 15.1046 0.895431 16 2 16H14C15.1046 16 16 15.1046 16 14V7C16 5.89543 15.1046 5 14 5H2ZM2 6C1.44772 6 1 6.44772 1 7V14C1 14.5523 1.44772 15 2 15H14C14.5523 15 15 14.5523 15 14V7C15 6.44772 14.5523 6 14 6H2Z" fill="white"/>
</mask>
<g mask="url(#mask2)">
<rect x="8" y="5" width="8" height="11" fill="#B0C9D1"/>
</g>
</svg>
