<svg width="16" height="14" viewBox="0 0 16 14" fill="none" xmlns="http://www.w3.org/2000/svg">
<path d="M6.61285 7.94032L4.02364 10.2215C3.81808 10.4026 3.50476 10.3827 3.32374 10.1772C3.14278 9.97175 3.16248 9.65843 3.36803 9.47734L5.95292 7.2L6.61285 7.94032Z" fill="#B0C9D1"/>
<path d="M9.60004 7.94032L12.1893 10.2215C12.3948 10.4026 12.7081 10.3827 12.8892 10.1772C13.0701 9.97175 13.0504 9.65843 12.8449 9.47734L10.26 7.2L9.60004 7.94032Z" fill="#B0C9D1"/>
<path d="M13.1472 4.12389L7.986 8.67192L2.82369 4.12382C2.61813 3.94273 2.30481 3.96263 2.12379 4.16805C1.94283 4.37354 1.96253 4.68686 2.16808 4.86796L7.65827 9.70491C7.75195 9.78743 7.86904 9.82868 7.98607 9.82868C8.10309 9.82868 8.22025 9.78743 8.31393 9.70485L13.803 4.86789C14.0084 4.68686 14.0282 4.37348 13.8472 4.16799C13.666 3.9627 13.3527 3.94286 13.1472 4.12389Z" fill="#B0C9D1"/>
<path fill-rule="evenodd" clip-rule="evenodd" d="M8.01648 8.64506L7.986 8.67192L2.82369 4.12382C2.61813 3.94273 2.30481 3.96263 2.12379 4.16805C1.94283 4.37354 1.96253 4.68686 2.16808 4.86796L7.65827 9.70491C7.75195 9.78743 7.86904 9.82868 7.98607 9.82868C7.99621 9.82868 8.00635 9.82837 8.01648 9.82775V8.64506Z" fill="#B0C9D1"/>
<path fill-rule="evenodd" clip-rule="evenodd" d="M3 0C1.34315 0 0 1.34315 0 3V11C0 12.6569 1.34315 14 3 14H13C14.6569 14 16 12.6569 16 11V3C16 1.34315 14.6569 0 13 0H3ZM3 1C1.89543 1 1 1.89543 1 3V11C1 12.1046 1.89543 13 3 13H13C14.1046 13 15 12.1046 15 11V3C15 1.89543 14.1046 1 13 1H3Z" fill="#B0C9D1"/>
<path fill-rule="evenodd" clip-rule="evenodd" d="M8 0V1H13C14.1046 1 15 1.89543 15 3V11C15 12.1046 14.1046 13 13 13H8V14H13C14.6569 14 16 12.6569 16 11V3C16 1.34315 14.6569 0 13 0H8Z" fill="#B0C9D1"/>
</svg>
