<svg xmlns="http://www.w3.org/2000/svg" viewBox="0 0 131.8 130.82"><title>Asset 1</title><g id="Layer_2" data-name="Layer 2"><g id="Objects"><path d="M130.53,107.76c-.88-4.55-31-21.46-40.19-26.94-.47-3.74-3.93-12.73-5.76-13.89a54.46,54.46,0,0,1,2.62-12,23.88,23.88,0,0,0,2.54-.15c1.19-.15,2.68-14.32,2.53-16.71a2.34,2.34,0,0,0-2.53-2.24s.15-.84.31-2.25c3.56-9.3.11-23.64-2.63-26.89a10.53,10.53,0,0,0-8.25-3.37C74.83-.93,63,.07,59.13.18c-4.37.13-4,3.38-4,3.38s-3.75-1.88-10.5,9.87c-5.36,9.33.31,20,2.88,24,.11.53.18.82.18.82s-.42-1.06-2.88-.28.64,12.48,1.31,16.51S52,56.65,52,56.65a58,58,0,0,1,1.34,10.49c-2.7,1.28-4.44,8.09-5.14,11.44-7.42,4.72-33.72,21.42-41,25.83C-1.27,109.55.08,130.82.08,130.82H131.8S131.58,113.14,130.53,107.76Z"/></g></g></svg>